<?xml version="1.0" encoding="utf-8"?>
<!-- Generator: Adobe Illustrator 25.2.0, SVG Export Plug-In . SVG Version: 6.00 Build 0)  -->
<svg version="1.1" id="Logo" xmlns="http://www.w3.org/2000/svg" xmlns:xlink="http://www.w3.org/1999/xlink" x="0px" y="0px"
	 viewBox="0 0 512 512" style="enable-background:new 0 0 512 512;" xml:space="preserve">
<style type="text/css">
	.st0{fill:#F9DE04;stroke:#000000;stroke-width:0.25;stroke-miterlimit:10;}
</style>
<path class="st0" d="M245.5,75.7c53.8,0,60.2,0.2,81.4,1.2c19.7,0.9,30.3,4.2,37.4,7c9.4,3.7,16.2,8,23.2,15s11.4,13.8,15,23.2
	c2.7,7.1,6.1,17.8,7,37.4c1,21.3,1.2,27.6,1.2,81.4s-0.2,60.2-1.2,81.4c-0.9,19.7-4.2,30.3-7,37.4c-3.7,9.4-8,16.2-15,23.2
	c-7,7-13.8,11.4-23.2,15c-7.1,2.7-17.8,6.1-37.4,7c-21.3,1-27.6,1.2-81.4,1.2s-60.2-0.2-81.4-1.2c-19.7-0.9-30.3-4.2-37.4-7
	c-9.4-3.7-16.2-8-23.2-15c-7-7-11.4-13.8-15-23.2c-2.7-7.1-6.1-17.8-7-37.4c-1-21.3-1.2-27.6-1.2-81.4s0.2-60.2,1.2-81.4
	c0.9-19.7,4.2-30.3,7-37.4c3.7-9.4,8-16.2,15-23.2s13.8-11.4,23.2-15c7.1-2.7,17.8-6.1,37.4-7C185.4,75.8,191.7,75.7,245.5,75.7
	 M245.5,39.4c-54.7,0-61.6,0.2-83.1,1.2c-21.4,1-36.1,4.4-48.9,9.4C100.2,55,89,62,77.8,73.2s-18.1,22.5-23.3,35.7
	c-5,12.8-8.4,27.4-9.4,49c-1,21.4-1.2,28.3-1.2,83s0.2,61.6,1.2,83.1c1,21.4,4.4,36.1,9.4,49c5.1,13.3,12.1,24.5,23.3,35.7
	c11.2,11.2,22.5,18.1,35.7,23.3c12.8,5,27.4,8.4,49,9.4c21.5,1,28.3,1.2,83.1,1.2s61.6-0.2,83.1-1.2c21.4-1,36.1-4.4,49-9.4
	c13.3-5.1,24.5-12.1,35.7-23.3c11.2-11.2,18.1-22.5,23.3-35.7c5-12.8,8.4-27.4,9.4-49c1-21.5,1.2-28.3,1.2-83.1s-0.2-61.6-1.2-83.1
	c-1-21.4-4.4-36.1-9.4-49c-5.1-13.3-12.1-24.5-23.3-35.7c-11.2-11.2-22.5-18.1-35.7-23.3c-12.8-5-27.4-8.4-49-9.4
	C307.1,39.6,300.2,39.4,245.5,39.4L245.5,39.4z"/>
<path class="st0" d="M245.5,137.4c-57.1,0-103.5,46.3-103.5,103.5s46.4,103.5,103.5,103.5S349,298,349,240.9
	S302.6,137.4,245.5,137.4z M245.5,308.1c-37.1,0-67.2-30.1-67.2-67.2s30.1-67.2,67.2-67.2s67.2,30.1,67.2,67.2
	S282.6,308.1,245.5,308.1z"/>
<circle class="st0" cx="353.1" cy="133.3" r="24.2"/>
</svg>
